<mxfile host="Electron" modified="2024-04-19T18:19:17.736Z" agent="Mozilla/5.0 (Windows NT 10.0; Win64; x64) AppleWebKit/537.36 (KHTML, like Gecko) draw.io/23.0.2 Chrome/120.0.6099.109 Electron/28.1.0 Safari/537.36" etag="lSdV--WXJoFS4Bu23w6N" version="23.0.2" type="device">
  <diagram name="Page-1" id="MsrcSf0IP4gxCztqrWc-">
    <mxGraphModel dx="1143" dy="661" grid="1" gridSize="10" guides="1" tooltips="1" connect="1" arrows="1" fold="1" page="1" pageScale="1" pageWidth="827" pageHeight="1169" math="0" shadow="0">
      <root>
        <mxCell id="0" />
        <mxCell id="1" parent="0" />
        <mxCell id="Phn4_05TWFFZlhLwC3l--29" style="edgeStyle=orthogonalEdgeStyle;rounded=0;orthogonalLoop=1;jettySize=auto;html=1;entryX=0.5;entryY=0;entryDx=0;entryDy=0;" edge="1" parent="1" source="Phn4_05TWFFZlhLwC3l--1" target="Phn4_05TWFFZlhLwC3l--13">
          <mxGeometry relative="1" as="geometry" />
        </mxCell>
        <mxCell id="Phn4_05TWFFZlhLwC3l--1" value="Taches" style="swimlane;fontStyle=0;childLayout=stackLayout;horizontal=1;startSize=30;horizontalStack=0;resizeParent=1;resizeParentMax=0;resizeLast=0;collapsible=1;marginBottom=0;whiteSpace=wrap;html=1;" vertex="1" parent="1">
          <mxGeometry x="320" y="130" width="140" height="120" as="geometry" />
        </mxCell>
        <mxCell id="Phn4_05TWFFZlhLwC3l--2" value="NOM DE LA TACHES" style="text;strokeColor=none;fillColor=none;align=left;verticalAlign=middle;spacingLeft=4;spacingRight=4;overflow=hidden;points=[[0,0.5],[1,0.5]];portConstraint=eastwest;rotatable=0;whiteSpace=wrap;html=1;" vertex="1" parent="Phn4_05TWFFZlhLwC3l--1">
          <mxGeometry y="30" width="140" height="30" as="geometry" />
        </mxCell>
        <mxCell id="Phn4_05TWFFZlhLwC3l--3" value="ID-SOUS TACHES" style="text;strokeColor=none;fillColor=none;align=left;verticalAlign=middle;spacingLeft=4;spacingRight=4;overflow=hidden;points=[[0,0.5],[1,0.5]];portConstraint=eastwest;rotatable=0;whiteSpace=wrap;html=1;" vertex="1" parent="Phn4_05TWFFZlhLwC3l--1">
          <mxGeometry y="60" width="140" height="30" as="geometry" />
        </mxCell>
        <mxCell id="Phn4_05TWFFZlhLwC3l--4" value="Echéances" style="text;strokeColor=none;fillColor=none;align=left;verticalAlign=middle;spacingLeft=4;spacingRight=4;overflow=hidden;points=[[0,0.5],[1,0.5]];portConstraint=eastwest;rotatable=0;whiteSpace=wrap;html=1;" vertex="1" parent="Phn4_05TWFFZlhLwC3l--1">
          <mxGeometry y="90" width="140" height="30" as="geometry" />
        </mxCell>
        <mxCell id="Phn4_05TWFFZlhLwC3l--63" style="edgeStyle=orthogonalEdgeStyle;rounded=0;orthogonalLoop=1;jettySize=auto;html=1;entryX=0.25;entryY=0;entryDx=0;entryDy=0;" edge="1" parent="1" source="Phn4_05TWFFZlhLwC3l--5" target="Phn4_05TWFFZlhLwC3l--21">
          <mxGeometry relative="1" as="geometry">
            <Array as="points">
              <mxPoint x="115" y="280" />
              <mxPoint x="115" y="280" />
            </Array>
          </mxGeometry>
        </mxCell>
        <mxCell id="Phn4_05TWFFZlhLwC3l--5" value="Projet" style="swimlane;fontStyle=0;childLayout=stackLayout;horizontal=1;startSize=30;horizontalStack=0;resizeParent=1;resizeParentMax=0;resizeLast=0;collapsible=1;marginBottom=0;whiteSpace=wrap;html=1;" vertex="1" parent="1">
          <mxGeometry x="70" y="130" width="140" height="120" as="geometry" />
        </mxCell>
        <mxCell id="Phn4_05TWFFZlhLwC3l--6" value="NOM DU PROJET" style="text;strokeColor=none;fillColor=none;align=left;verticalAlign=middle;spacingLeft=4;spacingRight=4;overflow=hidden;points=[[0,0.5],[1,0.5]];portConstraint=eastwest;rotatable=0;whiteSpace=wrap;html=1;" vertex="1" parent="Phn4_05TWFFZlhLwC3l--5">
          <mxGeometry y="30" width="140" height="30" as="geometry" />
        </mxCell>
        <mxCell id="Phn4_05TWFFZlhLwC3l--7" value="id taches" style="text;strokeColor=none;fillColor=none;align=left;verticalAlign=middle;spacingLeft=4;spacingRight=4;overflow=hidden;points=[[0,0.5],[1,0.5]];portConstraint=eastwest;rotatable=0;whiteSpace=wrap;html=1;" vertex="1" parent="Phn4_05TWFFZlhLwC3l--5">
          <mxGeometry y="60" width="140" height="30" as="geometry" />
        </mxCell>
        <mxCell id="Phn4_05TWFFZlhLwC3l--8" value="id_equipes" style="text;strokeColor=none;fillColor=none;align=left;verticalAlign=middle;spacingLeft=4;spacingRight=4;overflow=hidden;points=[[0,0.5],[1,0.5]];portConstraint=eastwest;rotatable=0;whiteSpace=wrap;html=1;" vertex="1" parent="Phn4_05TWFFZlhLwC3l--5">
          <mxGeometry y="90" width="140" height="30" as="geometry" />
        </mxCell>
        <mxCell id="Phn4_05TWFFZlhLwC3l--9" value="Sous-taches" style="swimlane;fontStyle=0;childLayout=stackLayout;horizontal=1;startSize=30;horizontalStack=0;resizeParent=1;resizeParentMax=0;resizeLast=0;collapsible=1;marginBottom=0;whiteSpace=wrap;html=1;" vertex="1" parent="1">
          <mxGeometry x="630" y="50" width="140" height="120" as="geometry" />
        </mxCell>
        <mxCell id="Phn4_05TWFFZlhLwC3l--10" value="NOM DE LA SOUS-TACHES" style="text;strokeColor=none;fillColor=none;align=left;verticalAlign=middle;spacingLeft=4;spacingRight=4;overflow=hidden;points=[[0,0.5],[1,0.5]];portConstraint=eastwest;rotatable=0;whiteSpace=wrap;html=1;" vertex="1" parent="Phn4_05TWFFZlhLwC3l--9">
          <mxGeometry y="30" width="140" height="30" as="geometry" />
        </mxCell>
        <mxCell id="Phn4_05TWFFZlhLwC3l--11" value="TACHES MERE" style="text;strokeColor=none;fillColor=none;align=left;verticalAlign=middle;spacingLeft=4;spacingRight=4;overflow=hidden;points=[[0,0.5],[1,0.5]];portConstraint=eastwest;rotatable=0;whiteSpace=wrap;html=1;" vertex="1" parent="Phn4_05TWFFZlhLwC3l--9">
          <mxGeometry y="60" width="140" height="30" as="geometry" />
        </mxCell>
        <mxCell id="Phn4_05TWFFZlhLwC3l--76" value="Echéances" style="text;strokeColor=none;fillColor=none;align=left;verticalAlign=middle;spacingLeft=4;spacingRight=4;overflow=hidden;points=[[0,0.5],[1,0.5]];portConstraint=eastwest;rotatable=0;whiteSpace=wrap;html=1;" vertex="1" parent="Phn4_05TWFFZlhLwC3l--9">
          <mxGeometry y="90" width="140" height="30" as="geometry" />
        </mxCell>
        <mxCell id="Phn4_05TWFFZlhLwC3l--75" style="edgeStyle=orthogonalEdgeStyle;rounded=0;orthogonalLoop=1;jettySize=auto;html=1;entryX=1.024;entryY=0.658;entryDx=0;entryDy=0;entryPerimeter=0;" edge="1" parent="Phn4_05TWFFZlhLwC3l--9" source="Phn4_05TWFFZlhLwC3l--9" target="Phn4_05TWFFZlhLwC3l--10">
          <mxGeometry relative="1" as="geometry">
            <mxPoint x="190" y="50" as="targetPoint" />
            <Array as="points">
              <mxPoint x="70" y="-20" />
              <mxPoint x="190" y="-20" />
              <mxPoint x="190" y="50" />
            </Array>
          </mxGeometry>
        </mxCell>
        <mxCell id="Phn4_05TWFFZlhLwC3l--13" value="Personnes" style="swimlane;fontStyle=0;childLayout=stackLayout;horizontal=1;startSize=30;horizontalStack=0;resizeParent=1;resizeParentMax=0;resizeLast=0;collapsible=1;marginBottom=0;whiteSpace=wrap;html=1;" vertex="1" parent="1">
          <mxGeometry x="320" y="350" width="140" height="120" as="geometry" />
        </mxCell>
        <mxCell id="Phn4_05TWFFZlhLwC3l--14" value="NOM DE LA PERSONNE" style="text;strokeColor=none;fillColor=none;align=left;verticalAlign=middle;spacingLeft=4;spacingRight=4;overflow=hidden;points=[[0,0.5],[1,0.5]];portConstraint=eastwest;rotatable=0;whiteSpace=wrap;html=1;" vertex="1" parent="Phn4_05TWFFZlhLwC3l--13">
          <mxGeometry y="30" width="140" height="30" as="geometry" />
        </mxCell>
        <mxCell id="Phn4_05TWFFZlhLwC3l--15" value="login , mdp , adresse mail" style="text;strokeColor=none;fillColor=none;align=left;verticalAlign=middle;spacingLeft=4;spacingRight=4;overflow=hidden;points=[[0,0.5],[1,0.5]];portConstraint=eastwest;rotatable=0;whiteSpace=wrap;html=1;" vertex="1" parent="Phn4_05TWFFZlhLwC3l--13">
          <mxGeometry y="60" width="140" height="30" as="geometry" />
        </mxCell>
        <mxCell id="Phn4_05TWFFZlhLwC3l--16" value="Item 3" style="text;strokeColor=none;fillColor=none;align=left;verticalAlign=middle;spacingLeft=4;spacingRight=4;overflow=hidden;points=[[0,0.5],[1,0.5]];portConstraint=eastwest;rotatable=0;whiteSpace=wrap;html=1;" vertex="1" parent="Phn4_05TWFFZlhLwC3l--13">
          <mxGeometry y="90" width="140" height="30" as="geometry" />
        </mxCell>
        <mxCell id="Phn4_05TWFFZlhLwC3l--57" style="edgeStyle=orthogonalEdgeStyle;rounded=0;orthogonalLoop=1;jettySize=auto;html=1;entryX=0.512;entryY=1.116;entryDx=0;entryDy=0;entryPerimeter=0;" edge="1" parent="1" source="Phn4_05TWFFZlhLwC3l--17" target="Phn4_05TWFFZlhLwC3l--24">
          <mxGeometry relative="1" as="geometry">
            <mxPoint x="140" y="550" as="targetPoint" />
            <Array as="points">
              <mxPoint x="730" y="550" />
              <mxPoint x="152" y="550" />
            </Array>
          </mxGeometry>
        </mxCell>
        <mxCell id="Phn4_05TWFFZlhLwC3l--17" value="Feuilles de temps" style="swimlane;fontStyle=0;childLayout=stackLayout;horizontal=1;startSize=30;horizontalStack=0;resizeParent=1;resizeParentMax=0;resizeLast=0;collapsible=1;marginBottom=0;whiteSpace=wrap;html=1;" vertex="1" parent="1">
          <mxGeometry x="660" y="350" width="140" height="80" as="geometry" />
        </mxCell>
        <mxCell id="Phn4_05TWFFZlhLwC3l--18" value="date_time" style="text;strokeColor=none;fillColor=none;align=left;verticalAlign=middle;spacingLeft=4;spacingRight=4;overflow=hidden;points=[[0,0.5],[1,0.5]];portConstraint=eastwest;rotatable=0;whiteSpace=wrap;html=1;" vertex="1" parent="Phn4_05TWFFZlhLwC3l--17">
          <mxGeometry y="30" width="140" height="50" as="geometry" />
        </mxCell>
        <mxCell id="Phn4_05TWFFZlhLwC3l--32" style="edgeStyle=orthogonalEdgeStyle;rounded=0;orthogonalLoop=1;jettySize=auto;html=1;entryX=-0.003;entryY=0.039;entryDx=0;entryDy=0;entryPerimeter=0;" edge="1" parent="1">
          <mxGeometry relative="1" as="geometry">
            <mxPoint x="319.5799999999999" y="410.5699999999998" as="targetPoint" />
            <mxPoint x="220" y="409.42857142857144" as="sourcePoint" />
            <Array as="points">
              <mxPoint x="300" y="409" />
              <mxPoint x="300" y="411" />
            </Array>
          </mxGeometry>
        </mxCell>
        <mxCell id="Phn4_05TWFFZlhLwC3l--33" style="edgeStyle=orthogonalEdgeStyle;rounded=0;orthogonalLoop=1;jettySize=auto;html=1;entryX=0.57;entryY=0.941;entryDx=0;entryDy=0;entryPerimeter=0;" edge="1" parent="1" source="Phn4_05TWFFZlhLwC3l--21" target="Phn4_05TWFFZlhLwC3l--8">
          <mxGeometry relative="1" as="geometry">
            <mxPoint x="150" y="260" as="targetPoint" />
            <Array as="points">
              <mxPoint x="150" y="280" />
              <mxPoint x="150" y="280" />
            </Array>
          </mxGeometry>
        </mxCell>
        <mxCell id="Phn4_05TWFFZlhLwC3l--21" value="Equipes" style="swimlane;fontStyle=0;childLayout=stackLayout;horizontal=1;startSize=30;horizontalStack=0;resizeParent=1;resizeParentMax=0;resizeLast=0;collapsible=1;marginBottom=0;whiteSpace=wrap;html=1;" vertex="1" parent="1">
          <mxGeometry x="80" y="350" width="140" height="120" as="geometry" />
        </mxCell>
        <mxCell id="Phn4_05TWFFZlhLwC3l--22" value="NOM DE L EQUIPE" style="text;strokeColor=none;fillColor=none;align=left;verticalAlign=middle;spacingLeft=4;spacingRight=4;overflow=hidden;points=[[0,0.5],[1,0.5]];portConstraint=eastwest;rotatable=0;whiteSpace=wrap;html=1;" vertex="1" parent="Phn4_05TWFFZlhLwC3l--21">
          <mxGeometry y="30" width="140" height="30" as="geometry" />
        </mxCell>
        <mxCell id="Phn4_05TWFFZlhLwC3l--23" value="mail équipes" style="text;strokeColor=none;fillColor=none;align=left;verticalAlign=middle;spacingLeft=4;spacingRight=4;overflow=hidden;points=[[0,0.5],[1,0.5]];portConstraint=eastwest;rotatable=0;whiteSpace=wrap;html=1;" vertex="1" parent="Phn4_05TWFFZlhLwC3l--21">
          <mxGeometry y="60" width="140" height="30" as="geometry" />
        </mxCell>
        <mxCell id="Phn4_05TWFFZlhLwC3l--24" value="Item 3" style="text;strokeColor=none;fillColor=none;align=left;verticalAlign=middle;spacingLeft=4;spacingRight=4;overflow=hidden;points=[[0,0.5],[1,0.5]];portConstraint=eastwest;rotatable=0;whiteSpace=wrap;html=1;" vertex="1" parent="Phn4_05TWFFZlhLwC3l--21">
          <mxGeometry y="90" width="140" height="30" as="geometry" />
        </mxCell>
        <mxCell id="Phn4_05TWFFZlhLwC3l--26" style="edgeStyle=orthogonalEdgeStyle;rounded=0;orthogonalLoop=1;jettySize=auto;html=1;exitX=0;exitY=0.5;exitDx=0;exitDy=0;" edge="1" parent="1" source="Phn4_05TWFFZlhLwC3l--4" target="Phn4_05TWFFZlhLwC3l--8">
          <mxGeometry relative="1" as="geometry" />
        </mxCell>
        <mxCell id="Phn4_05TWFFZlhLwC3l--27" style="edgeStyle=orthogonalEdgeStyle;rounded=0;orthogonalLoop=1;jettySize=auto;html=1;entryX=0;entryY=0.5;entryDx=0;entryDy=0;" edge="1" parent="1" source="Phn4_05TWFFZlhLwC3l--7" target="Phn4_05TWFFZlhLwC3l--3">
          <mxGeometry relative="1" as="geometry" />
        </mxCell>
        <mxCell id="Phn4_05TWFFZlhLwC3l--28" style="edgeStyle=orthogonalEdgeStyle;rounded=0;orthogonalLoop=1;jettySize=auto;html=1;entryX=0;entryY=0.5;entryDx=0;entryDy=0;" edge="1" parent="1" source="Phn4_05TWFFZlhLwC3l--3" target="Phn4_05TWFFZlhLwC3l--11">
          <mxGeometry relative="1" as="geometry" />
        </mxCell>
        <mxCell id="Phn4_05TWFFZlhLwC3l--30" style="edgeStyle=orthogonalEdgeStyle;rounded=0;orthogonalLoop=1;jettySize=auto;html=1;entryX=0.158;entryY=0.018;entryDx=0;entryDy=0;entryPerimeter=0;" edge="1" parent="1" source="Phn4_05TWFFZlhLwC3l--4" target="Phn4_05TWFFZlhLwC3l--17">
          <mxGeometry relative="1" as="geometry" />
        </mxCell>
        <mxCell id="Phn4_05TWFFZlhLwC3l--43" value="1" style="text;strokeColor=none;fillColor=none;spacingLeft=4;spacingRight=4;overflow=hidden;rotatable=0;points=[[0,0.5],[1,0.5]];portConstraint=eastwest;fontSize=12;whiteSpace=wrap;html=1;" vertex="1" parent="1">
          <mxGeometry x="210" y="175" width="40" height="30" as="geometry" />
        </mxCell>
        <mxCell id="Phn4_05TWFFZlhLwC3l--44" value="N" style="text;strokeColor=none;fillColor=none;spacingLeft=4;spacingRight=4;overflow=hidden;rotatable=0;points=[[0,0.5],[1,0.5]];portConstraint=eastwest;fontSize=12;whiteSpace=wrap;html=1;" vertex="1" parent="1">
          <mxGeometry x="290" y="175" width="40" height="30" as="geometry" />
        </mxCell>
        <mxCell id="Phn4_05TWFFZlhLwC3l--45" value="1" style="text;strokeColor=none;fillColor=none;spacingLeft=4;spacingRight=4;overflow=hidden;rotatable=0;points=[[0,0.5],[1,0.5]];portConstraint=eastwest;fontSize=12;whiteSpace=wrap;html=1;" vertex="1" parent="1">
          <mxGeometry x="210" y="205" width="40" height="30" as="geometry" />
        </mxCell>
        <mxCell id="Phn4_05TWFFZlhLwC3l--46" value="1" style="text;strokeColor=none;fillColor=none;spacingLeft=4;spacingRight=4;overflow=hidden;rotatable=0;points=[[0,0.5],[1,0.5]];portConstraint=eastwest;fontSize=12;whiteSpace=wrap;html=1;" vertex="1" parent="1">
          <mxGeometry x="290" y="205" width="40" height="30" as="geometry" />
        </mxCell>
        <mxCell id="Phn4_05TWFFZlhLwC3l--47" value="N" style="text;strokeColor=none;fillColor=none;spacingLeft=4;spacingRight=4;overflow=hidden;rotatable=0;points=[[0,0.5],[1,0.5]];portConstraint=eastwest;fontSize=12;whiteSpace=wrap;html=1;" vertex="1" parent="1">
          <mxGeometry x="600" y="100" width="40" height="30" as="geometry" />
        </mxCell>
        <mxCell id="Phn4_05TWFFZlhLwC3l--48" value="1" style="text;strokeColor=none;fillColor=none;spacingLeft=4;spacingRight=4;overflow=hidden;rotatable=0;points=[[0,0.5],[1,0.5]];portConstraint=eastwest;fontSize=12;whiteSpace=wrap;html=1;" vertex="1" parent="1">
          <mxGeometry x="460" y="175" width="40" height="30" as="geometry" />
        </mxCell>
        <mxCell id="Phn4_05TWFFZlhLwC3l--49" value="1" style="text;strokeColor=none;fillColor=none;spacingLeft=4;spacingRight=4;overflow=hidden;rotatable=0;points=[[0,0.5],[1,0.5]];portConstraint=eastwest;fontSize=12;whiteSpace=wrap;html=1;" vertex="1" parent="1">
          <mxGeometry x="394" y="250" width="40" height="30" as="geometry" />
        </mxCell>
        <mxCell id="Phn4_05TWFFZlhLwC3l--50" value="N" style="text;strokeColor=none;fillColor=none;spacingLeft=4;spacingRight=4;overflow=hidden;rotatable=0;points=[[0,0.5],[1,0.5]];portConstraint=eastwest;fontSize=12;whiteSpace=wrap;html=1;" vertex="1" parent="1">
          <mxGeometry x="394" y="320" width="40" height="30" as="geometry" />
        </mxCell>
        <mxCell id="Phn4_05TWFFZlhLwC3l--51" value="1" style="text;strokeColor=none;fillColor=none;spacingLeft=4;spacingRight=4;overflow=hidden;rotatable=0;points=[[0,0.5],[1,0.5]];portConstraint=eastwest;fontSize=12;whiteSpace=wrap;html=1;" vertex="1" parent="1">
          <mxGeometry x="460" y="205" width="40" height="30" as="geometry" />
        </mxCell>
        <mxCell id="Phn4_05TWFFZlhLwC3l--52" value="1" style="text;strokeColor=none;fillColor=none;spacingLeft=4;spacingRight=4;overflow=hidden;rotatable=0;points=[[0,0.5],[1,0.5]];portConstraint=eastwest;fontSize=12;whiteSpace=wrap;html=1;" vertex="1" parent="1">
          <mxGeometry x="690" y="310" width="40" height="30" as="geometry" />
        </mxCell>
        <mxCell id="Phn4_05TWFFZlhLwC3l--53" value="1" style="text;strokeColor=none;fillColor=none;spacingLeft=4;spacingRight=4;overflow=hidden;rotatable=0;points=[[0,0.5],[1,0.5]];portConstraint=eastwest;fontSize=12;whiteSpace=wrap;html=1;" vertex="1" parent="1">
          <mxGeometry x="630" y="395" width="40" height="30" as="geometry" />
        </mxCell>
        <mxCell id="Phn4_05TWFFZlhLwC3l--55" value="1" style="text;strokeColor=none;fillColor=none;spacingLeft=4;spacingRight=4;overflow=hidden;rotatable=0;points=[[0,0.5],[1,0.5]];portConstraint=eastwest;fontSize=12;whiteSpace=wrap;html=1;" vertex="1" parent="1">
          <mxGeometry x="460" y="390" width="40" height="30" as="geometry" />
        </mxCell>
        <mxCell id="Phn4_05TWFFZlhLwC3l--59" style="edgeStyle=orthogonalEdgeStyle;rounded=0;orthogonalLoop=1;jettySize=auto;html=1;" edge="1" parent="1" target="Phn4_05TWFFZlhLwC3l--15">
          <mxGeometry relative="1" as="geometry">
            <mxPoint x="660" y="425" as="sourcePoint" />
          </mxGeometry>
        </mxCell>
        <mxCell id="Phn4_05TWFFZlhLwC3l--61" value="1" style="text;strokeColor=none;fillColor=none;spacingLeft=4;spacingRight=4;overflow=hidden;rotatable=0;points=[[0,0.5],[1,0.5]];portConstraint=eastwest;fontSize=12;whiteSpace=wrap;html=1;" vertex="1" parent="1">
          <mxGeometry x="160" y="520" width="40" height="30" as="geometry" />
        </mxCell>
        <mxCell id="Phn4_05TWFFZlhLwC3l--62" value="1" style="text;strokeColor=none;fillColor=none;spacingLeft=4;spacingRight=4;overflow=hidden;rotatable=0;points=[[0,0.5],[1,0.5]];portConstraint=eastwest;fontSize=12;whiteSpace=wrap;html=1;" vertex="1" parent="1">
          <mxGeometry x="690" y="520" width="40" height="30" as="geometry" />
        </mxCell>
        <mxCell id="Phn4_05TWFFZlhLwC3l--64" value="1" style="text;strokeColor=none;fillColor=none;spacingLeft=4;spacingRight=4;overflow=hidden;rotatable=0;points=[[0,0.5],[1,0.5]];portConstraint=eastwest;fontSize=12;whiteSpace=wrap;html=1;" vertex="1" parent="1">
          <mxGeometry x="90" y="250" width="40" height="30" as="geometry" />
        </mxCell>
        <mxCell id="Phn4_05TWFFZlhLwC3l--65" value="1" style="text;strokeColor=none;fillColor=none;spacingLeft=4;spacingRight=4;overflow=hidden;rotatable=0;points=[[0,0.5],[1,0.5]];portConstraint=eastwest;fontSize=12;whiteSpace=wrap;html=1;" vertex="1" parent="1">
          <mxGeometry x="150" y="250" width="40" height="30" as="geometry" />
        </mxCell>
        <mxCell id="Phn4_05TWFFZlhLwC3l--66" value="1" style="text;strokeColor=none;fillColor=none;spacingLeft=4;spacingRight=4;overflow=hidden;rotatable=0;points=[[0,0.5],[1,0.5]];portConstraint=eastwest;fontSize=12;whiteSpace=wrap;html=1;" vertex="1" parent="1">
          <mxGeometry x="150" y="320" width="40" height="30" as="geometry" />
        </mxCell>
        <mxCell id="Phn4_05TWFFZlhLwC3l--67" value="N" style="text;strokeColor=none;fillColor=none;spacingLeft=4;spacingRight=4;overflow=hidden;rotatable=0;points=[[0,0.5],[1,0.5]];portConstraint=eastwest;fontSize=12;whiteSpace=wrap;html=1;" vertex="1" parent="1">
          <mxGeometry x="90" y="320" width="40" height="30" as="geometry" />
        </mxCell>
        <mxCell id="Phn4_05TWFFZlhLwC3l--72" style="edgeStyle=orthogonalEdgeStyle;rounded=0;orthogonalLoop=1;jettySize=auto;html=1;entryX=0.57;entryY=0.941;entryDx=0;entryDy=0;entryPerimeter=0;" edge="1" parent="1">
          <mxGeometry relative="1" as="geometry">
            <mxPoint x="350" y="248" as="targetPoint" />
            <mxPoint x="350" y="350" as="sourcePoint" />
            <Array as="points">
              <mxPoint x="350" y="280" />
              <mxPoint x="350" y="280" />
            </Array>
          </mxGeometry>
        </mxCell>
        <mxCell id="Phn4_05TWFFZlhLwC3l--73" value="1" style="text;strokeColor=none;fillColor=none;spacingLeft=4;spacingRight=4;overflow=hidden;rotatable=0;points=[[0,0.5],[1,0.5]];portConstraint=eastwest;fontSize=12;whiteSpace=wrap;html=1;" vertex="1" parent="1">
          <mxGeometry x="320" y="250" width="40" height="30" as="geometry" />
        </mxCell>
        <mxCell id="Phn4_05TWFFZlhLwC3l--74" value="N" style="text;strokeColor=none;fillColor=none;spacingLeft=4;spacingRight=4;overflow=hidden;rotatable=0;points=[[0,0.5],[1,0.5]];portConstraint=eastwest;fontSize=12;whiteSpace=wrap;html=1;" vertex="1" parent="1">
          <mxGeometry x="320" y="330" width="40" height="30" as="geometry" />
        </mxCell>
        <mxCell id="Phn4_05TWFFZlhLwC3l--78" value="1" style="text;strokeColor=none;fillColor=none;spacingLeft=4;spacingRight=4;overflow=hidden;rotatable=0;points=[[0,0.5],[1,0.5]];portConstraint=eastwest;fontSize=12;whiteSpace=wrap;html=1;" vertex="1" parent="1">
          <mxGeometry x="220" y="375" width="40" height="30" as="geometry" />
        </mxCell>
        <mxCell id="Phn4_05TWFFZlhLwC3l--79" value="N" style="text;strokeColor=none;fillColor=none;spacingLeft=4;spacingRight=4;overflow=hidden;rotatable=0;points=[[0,0.5],[1,0.5]];portConstraint=eastwest;fontSize=12;whiteSpace=wrap;html=1;" vertex="1" parent="1">
          <mxGeometry x="290" y="375" width="40" height="30" as="geometry" />
        </mxCell>
        <mxCell id="Phn4_05TWFFZlhLwC3l--80" value="1" style="text;strokeColor=none;fillColor=none;spacingLeft=4;spacingRight=4;overflow=hidden;rotatable=0;points=[[0,0.5],[1,0.5]];portConstraint=eastwest;fontSize=12;whiteSpace=wrap;html=1;" vertex="1" parent="1">
          <mxGeometry x="290" y="420" width="40" height="30" as="geometry" />
        </mxCell>
        <mxCell id="Phn4_05TWFFZlhLwC3l--81" value="1" style="text;strokeColor=none;fillColor=none;spacingLeft=4;spacingRight=4;overflow=hidden;rotatable=0;points=[[0,0.5],[1,0.5]];portConstraint=eastwest;fontSize=12;whiteSpace=wrap;html=1;" vertex="1" parent="1">
          <mxGeometry x="220" y="420" width="40" height="30" as="geometry" />
        </mxCell>
        <mxCell id="Phn4_05TWFFZlhLwC3l--77" style="edgeStyle=orthogonalEdgeStyle;rounded=0;orthogonalLoop=1;jettySize=auto;html=1;" edge="1" parent="1" source="Phn4_05TWFFZlhLwC3l--16" target="Phn4_05TWFFZlhLwC3l--24">
          <mxGeometry relative="1" as="geometry">
            <mxPoint x="230" y="455" as="targetPoint" />
          </mxGeometry>
        </mxCell>
      </root>
    </mxGraphModel>
  </diagram>
</mxfile>
